<?xml version="1.0" standalone="no"?>
<!DOCTYPE svg PUBLIC "-//W3C//DTD SVG 20010904//EN"
 "http://www.w3.org/TR/2001/REC-SVG-20010904/DTD/svg10.dtd">
<svg version="1.0" xmlns="http://www.w3.org/2000/svg"
 width="512.000000pt" height="512.000000pt" viewBox="0 0 512.000000 512.000000"
 preserveAspectRatio="xMidYMid meet">
<metadata>
Created by potrace 1.11, written by Peter Selinger 2001-2013
</metadata>
<g transform="translate(0.000000,512.000000) scale(0.100000,-0.100000)"
fill="#000000" stroke="none">
<path d="M1139 5116 c-2 -2 -49 -6 -104 -10 -325 -20 -523 -103 -726 -305
-157 -157 -250 -342 -279 -556 -23 -162 -25 -327 -25 -1690 0 -1526 1 -1575
41 -1765 80 -378 437 -712 809 -756 28 -4 53 -8 56 -10 3 -2 55 -7 115 -11
141 -10 2937 -10 3071 0 89 6 131 12 232 32 165 32 333 127 475 268 161 160
255 341 282 542 3 22 7 46 10 54 2 7 8 61 12 120 9 137 9 2915 0 3046 -11 148
-21 213 -49 314 -40 147 -128 292 -253 416 -169 168 -369 266 -591 290 -33 3
-73 9 -90 12 -32 6 -2979 15 -2986 9z"/>
</g>
</svg>
