<svg width="364" height="203" viewBox="0 0 364 203" fill="none" xmlns="http://www.w3.org/2000/svg">
<rect width="364" height="203" fill="#F3C1F8"/>
<path d="M69 54.6667C69 50.2329 69 48.016 69.8629 46.3226C70.6219 44.833 71.833 43.6219 73.3226 42.8629C75.016 42 77.2329 42 81.6667 42H94.3333C98.7671 42 100.984 42 102.677 42.8629C104.167 43.6219 105.378 44.833 106.137 46.3226C107 48.016 107 50.2329 107 54.6667V67.3333C107 71.7671 107 73.984 106.137 75.6774C105.378 77.167 104.167 78.3781 102.677 79.1371C100.984 80 98.7671 80 94.3333 80H81.6667C77.2329 80 75.016 80 73.3226 79.1371C71.833 78.3781 70.6219 77.167 69.8629 75.6774C69 73.984 69 71.7671 69 67.3333V54.6667Z" fill="black"/>
<circle cx="88" cy="61" r="11" fill="white"/>
<path fill-rule="evenodd" clip-rule="evenodd" d="M91.8462 67C91.8462 64.8758 90.1242 63.1538 88 63.1538C85.8758 63.1538 84.1538 64.8758 84.1538 67H82C82 63.6863 84.6863 61 88 61C91.3137 61 94 63.6863 94 67H91.8462Z" fill="black"/>
<path d="M69 12.6667C69 8.23292 69 6.01604 69.8629 4.32258C70.6219 2.83296 71.833 1.62186 73.3226 0.862865C75.016 0 77.2329 0 81.6667 0H94.3333C98.7671 0 100.984 0 102.677 0.862865C104.167 1.62186 105.378 2.83296 106.137 4.32258C107 6.01604 107 8.23292 107 12.6667V25.3333C107 29.7671 107 31.984 106.137 33.6774C105.378 35.167 104.167 36.3781 102.677 37.1371C100.984 38 98.7671 38 94.3333 38H81.6667C77.2329 38 75.016 38 73.3226 37.1371C71.833 36.3781 70.6219 35.167 69.8629 33.6774C69 31.984 69 29.7671 69 25.3333V12.6667Z" fill="black"/>
<circle cx="88" cy="19" r="11" fill="white"/>
<path fill-rule="evenodd" clip-rule="evenodd" d="M91.8462 25C91.8462 22.8758 90.1242 21.1538 88 21.1538C85.8758 21.1538 84.1538 22.8758 84.1538 25H82C82 21.6863 84.6863 19 88 19C91.3137 19 94 21.6863 94 25H91.8462Z" fill="black"/>
<path d="M69 96.6667C69 92.2329 69 90.016 69.8629 88.3226C70.6219 86.833 71.833 85.6219 73.3226 84.8629C75.016 84 77.2329 84 81.6667 84H94.3333C98.7671 84 100.984 84 102.677 84.8629C104.167 85.6219 105.378 86.833 106.137 88.3226C107 90.016 107 92.2329 107 96.6667V109.333C107 113.767 107 115.984 106.137 117.677C105.378 119.167 104.167 120.378 102.677 121.137C100.984 122 98.7671 122 94.3333 122H81.6667C77.2329 122 75.016 122 73.3226 121.137C71.833 120.378 70.6219 119.167 69.8629 117.677C69 115.984 69 113.767 69 109.333V96.6667Z" fill="black"/>
<circle cx="88" cy="103" r="11" fill="white"/>
<path fill-rule="evenodd" clip-rule="evenodd" d="M91.8462 109C91.8462 106.876 90.1242 105.154 88 105.154C85.8758 105.154 84.1538 106.876 84.1538 109H82C82 105.686 84.6863 103 88 103C91.3137 103 94 105.686 94 109H91.8462Z" fill="black"/>
<path d="M69 137.667C69 133.233 69 131.016 69.8629 129.323C70.6219 127.833 71.833 126.622 73.3226 125.863C75.016 125 77.2329 125 81.6667 125H94.3333C98.7671 125 100.984 125 102.677 125.863C104.167 126.622 105.378 127.833 106.137 129.323C107 131.016 107 133.233 107 137.667V150.333C107 154.767 107 156.984 106.137 158.677C105.378 160.167 104.167 161.378 102.677 162.137C100.984 163 98.7671 163 94.3333 163H81.6667C77.2329 163 75.016 163 73.3226 162.137C71.833 161.378 70.6219 160.167 69.8629 158.677C69 156.984 69 154.767 69 150.333V137.667Z" fill="black"/>
<circle cx="88" cy="144" r="11" fill="white"/>
<path fill-rule="evenodd" clip-rule="evenodd" d="M91.8462 150C91.8462 147.876 90.1242 146.154 88 146.154C85.8758 146.154 84.1538 147.876 84.1538 150H82C82 146.686 84.6863 144 88 144C91.3137 144 94 146.686 94 150H91.8462Z" fill="black"/>
<path d="M69 177.667C69 173.233 69 171.016 69.8629 169.323C70.6219 167.833 71.833 166.622 73.3226 165.863C75.016 165 77.2329 165 81.6667 165H94.3333C98.7671 165 100.984 165 102.677 165.863C104.167 166.622 105.378 167.833 106.137 169.323C107 171.016 107 173.233 107 177.667V190.333C107 194.767 107 196.984 106.137 198.677C105.378 200.167 104.167 201.378 102.677 202.137C100.984 203 98.7671 203 94.3333 203H81.6667C77.2329 203 75.016 203 73.3226 202.137C71.833 201.378 70.6219 200.167 69.8629 198.677C69 196.984 69 194.767 69 190.333V177.667Z" fill="black"/>
<circle cx="88" cy="184" r="11" fill="white"/>
<path fill-rule="evenodd" clip-rule="evenodd" d="M91.8462 190C91.8462 187.876 90.1242 186.154 88 186.154C85.8758 186.154 84.1538 187.876 84.1538 190H82C82 186.686 84.6863 184 88 184C91.3137 184 94 186.686 94 190H91.8462Z" fill="black"/>
</svg>
