<svg xmlns="http://www.w3.org/2000/svg" fill="none" viewBox="0 0 722 244">
  <defs/>
  <path fill="#4A4A4A" fill-rule="evenodd" d="M218.7 222.15a144.56 144.56 0 01-19.94 10.92c-26.18 11.66-51.2 12.24-69.23-.24a49.66 49.66 0 01-10.82-10.2c19.12-12.81 37.69-30.98 53.34-53.45 37.64-54.04 45.97-115.16 22.71-147.3 6.65-4.33 13.34-8 19.99-10.95 26.18-11.66 51.19-12.24 69.23.24a49.65 49.65 0 0110.79 10.18c-19.13 12.8-37.72 30.98-53.39 53.47-37.65 54.05-45.98 115.2-22.69 147.33zM193.55 20.28C226.8-1.4 261.46-6.83 285.12 9.53c4.33 3 8.1 6.6 11.33 10.7 33.2-21.64 67.83-27.05 91.46-10.7 4.35 3 8.13 6.62 11.36 10.75 33.24-21.68 67.9-27.11 91.56-10.75 4.33 3 8.1 6.6 11.33 10.7 33.2-21.64 67.83-27.05 91.46-10.7 4.35 3 8.13 6.62 11.36 10.75 33.24-21.68 67.9-27.11 91.56-10.75 16.24 11.23 24.64 30.92 25.46 54.66h-2c-.82-23.3-9.06-42.27-24.6-53.02-18.04-12.48-43.05-11.9-69.23-.24a144.6 144.6 0 00-19.99 10.95c23.26 32.14 14.93 93.26-22.71 147.3-15.65 22.47-34.23 40.64-53.34 53.44 3.09 3.93 6.7 7.36 10.82 10.21 18.03 12.48 43.04 11.9 69.22.24 11.44-5.1 23.03-12.28 34.25-21.33v2.56c-36.95 29.29-77.84 38.7-104.62 20.17a51.7 51.7 0 01-11.35-10.74c-33.22 21.67-67.87 27.1-91.51 10.74-4.34-3-8.11-6.6-11.33-10.72-33.23 21.65-67.88 27.07-91.52 10.72a51.7 51.7 0 01-11.35-10.74c-33.22 21.67-67.87 27.1-91.5 10.74-4.34-3-8.12-6.6-11.34-10.72-33.23 21.65-67.88 27.07-91.52 10.72-4.34-3-8.12-6.61-11.35-10.74-33.22 21.67-67.87 27.1-91.5 10.74-37.67-26.05-33.12-97.53 10.14-159.65C78.94 12.7 144.54-16.53 182.2 9.52c4.35 3.01 8.13 6.63 11.36 10.76zm-77.73 201.85a144.4 144.4 0 01-19.96 10.94c-26.17 11.66-51.17 12.24-69.2-.24C8.62 220.36.43 196.81 2.24 168.3c1.8-28.47 13.6-61.52 35.07-92.33 21.46-30.81 48.4-53.39 74.54-65.03 26.17-11.66 51.17-12.24 69.2.24a49.65 49.65 0 0110.82 10.22c-19.11 12.8-37.69 30.97-53.34 53.43-37.65 54.04-46 115.17-22.71 147.31zm1.67-1.1c-9.58-13.2-13.74-31.6-12.4-52.74 1.82-28.47 13.62-61.52 35.09-92.33 15.55-22.32 33.98-40.32 52.9-52.97 9.58 13.19 13.73 31.59 12.38 52.72-1.8 28.47-13.6 61.52-35.06 92.33-15.56 22.33-34 40.33-52.9 52.99zm102.87.01c-9.6-13.19-13.76-31.6-12.41-52.75 1.8-28.47 13.6-61.52 35.07-92.33 15.56-22.35 34.02-40.36 52.95-53.02 7.81 10.74 12.02 24.94 12.6 41.25h2c-.57-16.6-4.85-31.22-12.93-42.35 6.63-4.31 13.3-7.96 19.92-10.9 26.17-11.67 51.17-12.25 69.2.23a49.68 49.68 0 0110.82 10.22c-19.11 12.8-37.69 30.97-53.34 53.43-37.66 54.04-46 115.17-22.71 147.31a144.42 144.42 0 01-19.96 10.94c-26.17 11.66-51.17 12.24-69.2-.24a49.64 49.64 0 01-10.8-10.19A175.8 175.8 0 00233 214.3v-2.56a175.1 175.1 0 01-12.63 9.3zM514.29 64.2c-.58-16.31-4.79-30.51-12.6-41.25-18.94 12.66-37.39 30.67-52.95 53.02-21.46 30.8-33.26 63.86-35.07 92.33-1.35 21.15 2.81 39.56 12.4 52.75a174.9 174.9 0 0012.64-9.3v2.56c-3.77 2.99-7.59 5.77-11.43 8.34a49.64 49.64 0 0010.8 10.2c18.04 12.47 43.04 11.9 69.2.23a144.48 144.48 0 0019.97-10.94c-23.28-32.14-14.95-93.27 22.7-147.31 15.66-22.46 34.23-40.63 53.35-53.43a49.67 49.67 0 00-10.82-10.22c-18.03-12.48-43.03-11.9-69.2-.24a144.5 144.5 0 00-19.92 10.9c8.08 11.14 12.36 25.76 12.93 42.36h-2zm-24.6-53.02a49.7 49.7 0 0110.79 10.18c-19.13 12.8-37.73 30.98-53.39 53.47-37.65 54.05-45.98 115.2-22.69 147.33a144.62 144.62 0 01-19.94 10.92c-26.17 11.66-51.18 12.24-69.22-.24a49.67 49.67 0 01-10.82-10.2c19.12-12.81 37.69-30.98 53.34-53.45 37.64-54.04 45.97-115.16 22.71-147.3 6.65-4.33 13.34-8 19.99-10.95 26.18-11.66 51.19-12.24 69.23.24zm92.14 156.87c-15.56 22.33-34 40.33-52.9 52.99-9.6-13.2-13.75-31.6-12.4-52.74 1.8-28.47 13.6-61.52 35.07-92.33 15.56-22.32 34-40.32 52.9-52.97 9.59 13.19 13.74 31.59 12.4 52.72-1.82 28.47-13.62 61.52-35.07 92.33zM323.2 221.03c18.92-12.66 37.35-30.66 52.9-52.99 21.46-30.8 33.26-63.86 35.07-92.33 1.35-21.13-2.8-39.53-12.38-52.72-18.92 12.65-37.35 30.65-52.9 52.97-21.47 30.8-33.27 63.86-35.09 92.33-1.34 21.14 2.82 39.54 12.4 52.74z" clip-rule="evenodd" opacity=".7"/>
</svg>
